<svg width="330" height="334" viewBox="0 0 330 334" fill="none" xmlns="http://www.w3.org/2000/svg">
<g clip-path="url(#clip0_19_1394)">
<path d="M340.404 179.737H257.81C255.312 179.664 252.941 178.621 251.2 176.83C249.459 175.038 248.485 172.639 248.485 170.141C248.485 167.644 249.459 165.244 251.2 163.453C252.941 161.661 255.312 160.618 257.81 160.545H320.461C323.006 160.545 325.447 159.535 327.247 157.736C329.046 155.937 330.057 153.498 330.057 150.954C330.057 148.41 329.046 145.97 327.247 144.172C325.447 142.373 323.006 141.362 320.461 141.362H313.313C307.887 64.3927 242.763 3.61317 163.229 3.61317C135.742 3.55786 108.758 10.9816 85.1711 25.0883H100.063C102.608 25.0883 105.049 26.0988 106.848 27.8976C108.648 29.6964 109.659 32.136 109.659 34.6799C109.659 37.2238 108.648 39.6634 106.848 41.4622C105.049 43.261 102.608 44.2715 100.063 44.2715H24.8533C23.5691 44.2341 22.2904 44.4546 21.0929 44.92C19.8954 45.3854 18.8036 46.0862 17.8819 46.9809C16.9603 47.8757 16.2276 48.9462 15.7273 50.129C15.227 51.3119 14.9692 52.583 14.9692 53.8672C14.9692 55.1514 15.227 56.4226 15.7273 57.6054C16.2276 58.7883 16.9603 59.8587 17.8819 60.7535C18.8036 61.6482 19.8954 62.349 21.0929 62.8144C22.2904 63.2798 23.5691 63.5003 24.8533 63.4629H42.4052L42.2339 63.6994H55.2897C57.8347 63.6994 60.2755 64.71 62.0751 66.5088C63.8747 68.3075 64.8857 70.7472 64.8857 73.2911C64.8857 75.8349 63.8747 78.2746 62.0751 80.0734C60.2755 81.8721 57.8347 82.8827 55.2897 82.8827H29.994C19.113 103.291 13.2187 125.984 12.7933 149.106C12.3678 172.228 17.4232 195.123 27.5461 215.917H20.0472C17.5495 215.99 15.1786 217.033 13.4376 218.825C11.6967 220.616 10.7229 223.016 10.7229 225.513C10.7229 228.011 11.6967 230.41 13.4376 232.202C15.1786 233.993 17.5495 235.036 20.0472 235.109H38.8149C52.6735 254.942 71.0765 271.175 92.4883 282.453C113.9 293.731 137.7 299.727 161.902 299.941C186.104 300.154 210.006 294.58 231.614 283.682C253.222 272.785 271.909 256.88 286.116 237.295H300.543C303.088 237.295 305.529 236.284 307.328 234.485C309.128 232.687 310.139 230.247 310.139 227.703C310.139 225.159 309.128 222.72 307.328 220.921C305.529 219.122 303.088 218.111 300.543 218.111H277.32C274.822 218.039 272.451 216.996 270.71 215.204C268.969 213.413 267.996 211.013 267.996 208.516C267.996 206.018 268.969 203.619 270.71 201.827C272.451 200.036 274.822 198.993 277.32 198.92H340.404C342.949 198.92 345.39 197.91 347.189 196.111C348.989 194.312 350 191.872 350 189.328C350 186.785 348.989 184.345 347.189 182.546C345.39 180.747 342.949 179.737 340.404 179.737ZM100.504 83.0866C99.6128 83.9785 98.5545 84.6855 97.3893 85.167C96.2242 85.6485 94.9753 85.895 93.7145 85.8923H89.7733C88.5131 85.8923 87.2653 85.6442 86.1011 85.1622C84.9368 84.6802 83.879 83.9736 82.9879 83.083C82.0968 82.1923 81.39 81.1349 80.9078 79.9712C80.4255 78.8075 80.1773 77.5603 80.1773 76.3007C80.1773 75.0411 80.4255 73.7938 80.9078 72.6301C81.39 71.4664 82.0968 70.409 82.9879 69.5184C83.879 68.6277 84.9368 67.9212 86.1011 67.4392C87.2653 66.9572 88.5131 66.7091 89.7733 66.7091H93.7145C95.6118 66.7115 97.4658 67.2756 99.0426 68.3301C100.619 69.3846 101.849 70.8822 102.575 72.6342C103.301 74.3861 103.492 76.3138 103.123 78.174C102.755 80.0342 101.843 81.7436 100.504 83.0866ZM259.042 214.311C258.151 215.204 257.093 215.912 255.928 216.395C254.763 216.878 253.514 217.126 252.253 217.125H248.303C245.806 217.052 243.435 216.009 241.694 214.217C239.953 212.426 238.979 210.026 238.979 207.529C238.979 205.031 239.953 202.632 241.694 200.84C243.435 199.049 245.806 198.006 248.303 197.933H252.253C254.15 197.936 256.004 198.5 257.581 199.554C259.158 200.609 260.387 202.106 261.113 203.858C261.839 205.61 262.03 207.538 261.661 209.398C261.293 211.258 260.381 212.968 259.042 214.311Z" fill="url(#paint0_linear_19_1394)"/>
<path d="M42.3481 17.7233H9.62702C4.32728 17.7233 0.0310059 22.0176 0.0310059 27.3149V27.3231C0.0310059 32.6204 4.32728 36.9147 9.62702 36.9147H42.3481C47.6479 36.9147 51.9441 32.6204 51.9441 27.3231V27.3149C51.9441 22.0176 47.6479 17.7233 42.3481 17.7233Z" fill="url(#paint1_linear_19_1394)"/>
<path d="M26.8362 242.637H17.8522C12.5524 242.637 8.25616 246.931 8.25616 252.229V252.237C8.25616 257.534 12.5524 261.828 17.8522 261.828H26.8362C32.1359 261.828 36.4322 257.534 36.4322 252.237V252.229C36.4322 246.931 32.1359 242.637 26.8362 242.637Z" fill="url(#paint2_linear_19_1394)"/>
<path d="M138.684 48.9939L139.5 50.7557L138.684 50.7067L138.463 48.578C138.555 48.7062 138.629 48.8461 138.684 48.9939Z" fill="#FFC2A4"/>
<path d="M273.346 11.8264L282.958 19.5992L271.567 13.4739L269.495 0L273.346 11.8264Z" fill="#AAAAAA"/>
<path d="M271.567 13.4821L282.95 19.6074L273.003 23.0085C272.96 22.1467 272.745 21.3021 272.373 20.5237C272 19.7453 271.477 19.0485 270.833 18.4736C271.135 17.7357 271.249 16.9344 271.165 16.1415C271.081 15.3487 270.801 14.5891 270.351 13.9307L271.567 13.4821Z" fill="url(#paint3_linear_19_1394)"/>
<path d="M269.495 0L271.567 13.4821L270.351 13.9307C269.991 13.413 269.532 12.9718 269 12.6326C268.469 12.2934 267.875 12.0629 267.253 11.9544C266.632 11.8459 265.995 11.8617 265.38 12.0007C264.764 12.1397 264.183 12.3993 263.668 12.7644C262.953 13.277 262.389 13.973 262.036 14.7789C260.87 14.6602 259.693 14.8537 258.626 15.3396C257.56 15.8255 256.641 16.5862 255.966 17.5439L249.829 13.8247L261.645 9.74658L269.495 0Z" fill="url(#paint4_linear_19_1394)"/>
<path d="M270.833 18.4737C271.477 19.0485 272 19.7453 272.373 20.5237C272.745 21.3021 272.96 22.1467 273.003 23.0085L271.135 23.6365L270.319 24.656C270.299 24.5704 270.275 24.486 270.245 24.4032C269.992 23.6935 269.569 23.0565 269.013 22.5476C268.456 22.0387 267.784 21.6733 267.055 21.4833C267.786 21.3727 268.482 21.0935 269.087 20.6677C269.87 20.1222 270.477 19.3596 270.833 18.4737Z" fill="url(#paint5_linear_19_1394)"/>
<path d="M271.135 23.6365L273.003 23.0085C273.064 23.9574 272.91 24.9079 272.555 25.7897L271.641 28.049L270.229 27.4862C270.564 26.5775 270.598 25.5856 270.327 24.656L271.135 23.6365Z" fill="#FFC2A4"/>
<path d="M271.641 28.049L269.69 32.9426C269.373 33.7432 268.901 34.4731 268.3 35.0903C267.699 35.7074 266.982 36.1996 266.191 36.5386C265.399 36.8775 264.547 37.0564 263.686 37.0649C262.825 37.0735 261.97 36.9115 261.172 36.5884L256.023 34.5249C255.592 34.3534 255.181 34.1345 254.799 33.8724C255.689 34.1087 256.629 34.0747 257.5 33.7746L262.771 31.9231L263.26 33.4483L265.178 31.0749L267.438 30.2593H267.487C268.117 30.0309 268.689 29.667 269.163 29.1935C269.637 28.72 270.001 28.1483 270.229 27.5188L271.641 28.049Z" fill="#FFC2A4"/>
<path d="M261.49 22.6414L264.411 21.6138C264.676 21.5232 264.95 21.4577 265.227 21.418C265.846 21.5755 266.49 21.6032 267.12 21.4996C267.85 21.6896 268.522 22.055 269.078 22.5639C269.634 23.0728 270.057 23.7098 270.311 24.4195C270.34 24.5023 270.364 24.5867 270.384 24.6723L265.235 31.0586L262.828 31.8742L257.557 33.7256C256.686 34.0257 255.746 34.0598 254.856 33.8235C253.777 33.09 252.94 32.0526 252.452 30.843C251.964 29.6333 251.846 28.306 252.114 27.0294C252.638 26.1425 253.446 25.4585 254.407 25.0883H254.456L259.931 23.1716L261.49 22.6414Z" fill="#F4AD8E"/>
<path d="M265.178 31.0423L270.327 24.656C270.598 25.5856 270.564 26.5775 270.229 27.4862C270.001 28.1157 269.637 28.6874 269.163 29.1609C268.689 29.6344 268.117 29.9982 267.487 30.2267H267.438L265.178 31.0423Z" fill="#F4AD8E"/>
<path d="M265.17 21.4017C264.892 21.4414 264.619 21.5069 264.354 21.5975L261.49 22.6414L261.343 20.8308L255.957 17.5683C256.633 16.6107 257.551 15.8499 258.618 15.3641C259.685 14.8782 260.862 14.6847 262.028 14.8034C261.684 15.5587 261.54 16.3898 261.61 17.2169C261.68 18.044 261.962 18.8391 262.428 19.5258C263.08 20.4672 264.056 21.1351 265.17 21.4017Z" fill="url(#paint6_linear_19_1394)"/>
<path d="M265.178 31.0341L263.269 33.4157L262.771 31.8824L265.178 31.0341Z" fill="#AAAAAA"/>
<path d="M255.941 17.5439L261.327 20.8063L261.49 22.6414L259.948 23.1797L259.442 21.6138L255.46 18.4002C255.597 18.1024 255.758 17.816 255.941 17.5439Z" fill="#AAAAAA"/>
<path d="M255.443 18.3839L259.425 21.5975L259.931 23.1634L254.456 25.0883H254.407C253.423 25.4494 252.594 26.1377 252.057 27.0376C252.128 26.6693 252.235 26.3087 252.375 25.961L255.231 18.8407C255.296 18.6857 255.37 18.5634 255.443 18.3839Z" fill="#FFC2A4"/>
<path d="M263.432 37.0207V37.4285L261.824 42.2162C260.791 40.7252 259.355 39.5596 257.683 38.856C256.01 38.1525 254.172 37.9402 252.383 38.2441L254.709 33.9377L254.758 33.799H254.807C255.189 34.0611 255.6 34.28 256.031 34.4515L261.18 36.515C261.894 36.816 262.657 36.9872 263.432 37.0207Z" fill="#FFC2A4"/>
<path d="M249.805 13.8247L255.941 17.5439C255.754 17.8024 255.588 18.0751 255.443 18.3595L249.805 13.8247Z" fill="#AAAAAA"/>
<path d="M252.375 38.2686C254.162 37.9621 255.998 38.1707 257.67 38.8698C259.342 39.5689 260.78 40.7297 261.816 42.2162C262.301 42.913 262.693 43.6697 262.983 44.4673C263.795 46.688 263.76 49.1299 262.885 51.3266L247.847 88.8448C247.583 89.5153 247.237 90.1508 246.818 90.737C246.952 89.7912 246.971 88.8328 246.876 87.8824C246.876 87.7274 246.875 87.5888 246.818 87.442C246.375 84.2808 244.698 81.4234 242.154 79.4935C239.61 77.5635 236.406 76.7178 233.24 77.1408L231.674 77.3528L244.974 44.1818C245.594 42.6425 246.601 41.2893 247.898 40.2533C249.194 39.2173 250.737 38.5336 252.375 38.2686Z" fill="#191515"/>
<path d="M233.24 77.1408C236.403 76.7224 239.603 77.5704 242.144 79.4998C244.684 81.4293 246.358 84.284 246.802 87.442C246.802 87.5888 246.843 87.7274 246.859 87.8824C246.955 88.8328 246.936 89.7913 246.802 90.7371C245.45 92.6828 243.429 94.0629 241.124 94.6142C238.819 95.1654 236.392 94.8491 234.306 93.7257C232.219 92.6023 230.62 90.7503 229.812 88.5233C229.005 86.2962 229.046 83.8499 229.927 81.6511L231.666 77.3365L233.24 77.1408Z" fill="#262626"/>
<path d="M235.305 94.2034C237.331 95.0108 239.57 95.1093 241.659 94.4829C243.748 93.8565 245.563 92.542 246.81 90.7534C246.438 93.3489 245.233 95.7535 243.376 97.6054C241.519 99.4572 239.11 100.656 236.512 101.022L202.07 105.736C202.886 97.5067 203.408 90.5332 203.53 88.7877C203.534 88.7389 203.534 88.6898 203.53 88.6409C203.525 88.5948 203.525 88.5484 203.53 88.5023C203.526 88.4862 203.526 88.4694 203.53 88.4533C203.378 86.9914 202.762 85.6164 201.773 84.5291C200.783 83.4418 199.472 82.6992 198.03 82.4096L198.21 82.01L231.665 77.4262L229.927 81.7408C228.987 84.1158 229.024 86.766 230.029 89.114C231.035 91.4621 232.928 93.3178 235.297 94.2768L235.305 94.2034Z" fill="#262626"/>
<path d="M214.383 41.7513C215.15 42.0876 215.753 42.7143 216.059 43.494C216.365 44.2737 216.349 45.1428 216.015 45.9109L204.591 71.9453L198.879 69.4414L199.76 67.4349L204.656 65.5346L202.763 60.6409L203.579 58.8465L208.475 56.938L206.574 52.0443L201.678 53.9447L199.924 53.1291L205.187 41.1477C205.525 40.3802 206.153 39.7777 206.935 39.472C207.716 39.1663 208.587 39.1823 209.356 39.5165L214.383 41.7513ZM212.441 47.7705L210.54 42.8768L205.644 44.7854L207.545 49.679L212.441 47.7705Z" fill="#191515"/>
<path d="M208.524 26.2709C208.846 26.4585 209.1 26.7439 209.249 27.0855C209.398 27.4272 209.434 27.8074 209.353 28.1711C209.271 28.5347 209.075 28.8628 208.794 29.1077C208.513 29.3527 208.161 29.5018 207.79 29.5334L187.741 30.6589L187.692 30.2022C186.696 20.2191 177.998 12.8459 168.369 13.8083L152.8 15.4069C143.735 16.3204 136.954 24.3135 137.027 33.5625L119.027 34.5739C118.679 34.5776 118.339 34.4702 118.057 34.2676C117.775 34.0649 117.565 33.7774 117.457 33.447C117.35 33.1166 117.351 32.7606 117.46 32.4307C117.569 32.1009 117.78 31.8145 118.064 31.6132L159.491 3.88232C160.508 3.23214 161.681 2.86515 162.887 2.81926C164.093 2.77338 165.29 3.05027 166.354 3.62133L208.524 26.2709Z" fill="#E5A045"/>
<path d="M210.535 42.8762L205.638 44.7825L207.542 49.6693L212.439 47.763L210.535 42.8762Z" fill="#E5A045"/>
<path d="M206.509 52.0525L208.41 56.938L203.522 58.8384L201.613 53.9447L206.509 52.0525Z" fill="#E5A045"/>
<path d="M201.613 53.9447L203.522 58.8384L202.731 60.6409L197.835 62.5413L196.08 61.7746L199.858 53.178L201.613 53.9447Z" fill="#191515"/>
<path d="M202.731 60.6409L204.632 65.5264L199.736 67.4349L197.835 62.5413L202.731 60.6409Z" fill="#E5A045"/>
<path d="M206.182 72.6549C206.734 72.8993 207.202 73.3016 207.526 73.811C207.849 74.3204 208.015 74.9142 208.002 75.5177C207.989 76.1211 207.798 76.7072 207.452 77.2021C207.106 77.697 206.622 78.0786 206.06 78.2989C205.302 78.5858 204.461 78.5653 203.718 78.2418L200.495 76.8227L192.294 73.2095L189.609 72.0269C188.871 71.6984 188.293 71.0906 188.002 70.3368C187.712 69.583 187.732 68.7447 188.059 68.0059C188.215 67.635 188.445 67.2994 188.733 67.0191C189.022 66.7389 189.365 66.5197 189.74 66.3746C190.494 66.0847 191.332 66.1023 192.074 66.4236L193.706 67.1413L198.855 69.4087L204.566 71.9127L206.182 72.6549Z" fill="#771515"/>
<path d="M168.369 13.8491C177.998 12.8867 186.696 20.2598 187.692 30.243L187.741 30.6997L137.027 33.5625C136.954 24.3134 143.735 16.3204 152.8 15.4069L168.369 13.8491Z" fill="#E5A045"/>
<path d="M187.741 30.6997L187.855 31.8905L137.215 36.3356L137.117 35.3242C137.06 34.737 137.027 34.1498 137.027 33.5625L187.741 30.6997Z" fill="#191515"/>
<path d="M187.855 31.8905L189.308 46.2942L162.298 49.0021L161.858 44.5978C161.738 43.3942 161.152 42.285 160.226 41.5066C159.777 41.1272 159.258 40.8409 158.697 40.6644C158.137 40.488 157.547 40.4249 156.962 40.4789C155.966 40.5822 155.037 41.0293 154.334 41.7431C154.542 41.4093 154.636 41.0174 154.604 40.6257C154.554 40.163 154.324 39.7383 153.964 39.4437C153.603 39.1491 153.141 39.0082 152.678 39.0516L142.658 40.063C142.513 40.0763 142.371 40.1064 142.233 40.1527C141.811 40.2874 141.456 40.5767 141.239 40.9623C141.021 41.3479 140.958 41.8015 141.061 42.2319C141.165 42.6623 141.427 43.0378 141.796 43.283C142.164 43.5282 142.612 43.6249 143.049 43.5538L153.07 42.5506C153.214 42.5306 153.356 42.4979 153.494 42.4527C153.701 42.3785 153.89 42.2618 154.049 42.1101C153.29 43.0601 152.932 44.269 153.053 45.4786L153.494 49.8748L142.486 50.984L139.467 50.7801L138.651 49.0184C138.591 48.8696 138.512 48.7297 138.414 48.6024L137.182 36.3682L187.855 31.8905ZM175.387 38.3257C175.337 37.8645 175.109 37.4411 174.75 37.1467C174.391 36.8523 173.931 36.7104 173.469 36.7516L163.441 37.7629C163.21 37.7832 162.986 37.8495 162.781 37.9579C162.577 38.0663 162.396 38.2147 162.25 38.3942C162.104 38.5737 161.995 38.7807 161.931 39.0029C161.866 39.2251 161.847 39.458 161.874 39.6878C161.897 39.917 161.966 40.1394 162.075 40.3422C162.185 40.5451 162.333 40.7243 162.512 40.8697C162.691 41.0152 162.897 41.124 163.118 41.1898C163.339 41.2557 163.57 41.2774 163.8 41.2537L173.82 40.2505C173.964 40.2306 174.106 40.1978 174.244 40.1527C174.609 40.0162 174.919 39.7633 175.126 39.4329C175.332 39.1026 175.424 38.7134 175.387 38.3257Z" fill="#FFC2A4"/>
<path d="M197.835 62.5413L199.736 67.435L198.855 69.4332L193.706 67.174L196.08 61.7746L197.835 62.5413Z" fill="#191515"/>
<path d="M200.495 76.8227L198.251 81.9284L195.99 82.2465L192.963 82.5483L187.977 83.0458L192.302 73.2177L200.495 76.8227Z" fill="#191515"/>
<path d="M153.502 49.8503V49.834L162.306 48.9613L189.307 46.2534L190.099 54.0997L142.494 50.9514L153.502 49.8503Z" fill="#191515"/>
<path d="M198.071 82.3362C199.51 82.6288 200.818 83.3728 201.804 84.4599C202.79 85.5469 203.403 86.9202 203.555 88.3799C203.551 88.396 203.551 88.4128 203.555 88.4288C203.55 88.4749 203.55 88.5214 203.555 88.5675C203.558 88.6164 203.558 88.6654 203.555 88.7143C203.383 90.3455 202.739 96.7399 201.588 105.728C200.943 110.834 200.16 116.78 199.222 123.182C198.912 124.487 198.577 125.751 198.243 126.967L184.444 113.289L198.071 82.3362Z" fill="#262626"/>
<path d="M142.494 50.9595L190.099 54.1078C190.915 62.3537 183.286 69.5066 175.648 72.3613C174.872 72.6582 174.079 72.9088 173.273 73.1116C173.277 73.1741 173.277 73.2367 173.273 73.2992C173.411 74.6772 173.014 76.0554 172.164 77.1489C171.75 77.68 171.233 78.122 170.644 78.4486C170.055 78.7751 169.406 78.9795 168.736 79.0493L159.222 80.0036L158.276 80.0933C157.169 80.2087 156.056 79.9378 155.126 79.3266C155.691 78.8536 156.065 78.1918 156.179 77.4639C156.293 76.736 156.138 75.9916 155.745 75.3689C155.351 74.7462 154.744 74.2874 154.038 74.0777C153.331 73.8681 152.573 73.9219 151.903 74.229L150.515 74.8407L150.214 74.751L139.475 50.7556L142.494 50.9595Z" fill="#262626"/>
<path d="M203.555 88.7877C203.432 90.5331 202.902 97.5066 202.094 105.736L201.588 105.801C202.682 96.8134 203.359 90.4353 203.555 88.7877Z" fill="#262626"/>
<path d="M198.251 81.9366L198.071 82.3362H197.941C197.321 82.2296 196.69 82.205 196.064 82.2628H195.99L198.251 81.9366Z" fill="#262626"/>
<path d="M198.071 82.3362L184.42 113.33L177.614 106.65L179.336 102.735L192.947 82.5809L195.982 82.2791H196.056C196.682 82.2213 197.313 82.246 197.932 82.3525L198.071 82.3362Z" fill="#262626"/>
<path d="M192.963 82.5483V82.5727L179.336 102.694L187.977 83.0458L192.963 82.5483Z" fill="#CB1122"/>
<path d="M173.469 36.7516C173.892 36.7166 174.314 36.8353 174.656 37.086C174.998 37.3366 175.239 37.7024 175.333 38.116C175.427 38.5296 175.369 38.9633 175.169 39.3375C174.969 39.7116 174.641 40.0011 174.244 40.1527C174.106 40.1978 173.964 40.2306 173.82 40.2506L163.8 41.2538C163.57 41.2775 163.339 41.2557 163.118 41.1899C162.897 41.124 162.691 41.0152 162.512 40.8698C162.333 40.7243 162.185 40.5451 162.075 40.3423C161.966 40.1394 161.897 39.917 161.874 39.6878C161.847 39.458 161.866 39.2251 161.931 39.0029C161.995 38.7807 162.104 38.5737 162.25 38.3942C162.396 38.2147 162.577 38.0663 162.781 37.9579C162.986 37.8495 163.21 37.7832 163.441 37.7629L173.469 36.7516Z" fill="white"/>
<path d="M191.592 147.895C193.689 148.295 222.42 154.151 223.93 179.06C224.803 193.3 216.17 202.908 208.247 208.675L205.187 201.897C211.772 197.591 218.194 190.397 217.426 178.889C216.48 164.053 200.87 157.079 190.997 155.236C191.168 152.936 191.315 150.505 191.592 147.895Z" fill="#771515"/>
<path d="M187.977 83.0458L179.336 102.694L177.06 106.054L171.299 100.345L180.013 83.8533L187.977 83.0458Z" fill="#CB1122"/>
<path d="M184.42 113.362L198.218 127.04C197.81 128.508 197.402 129.903 196.97 131.183L181.613 119.765L184.42 113.362Z" fill="#771515"/>
<path d="M158.741 85.9902L178.463 84.0082L180.013 83.8533L171.299 100.345L156.994 86.1614L158.741 85.9902Z" fill="#191515"/>
<path d="M175.648 72.3939L178.455 83.9756V84.0408L158.732 86.0228L159.238 80.0362L168.753 79.0819C169.423 79.0121 170.071 78.8077 170.66 78.4812C171.249 78.1546 171.766 77.7126 172.18 77.1815C173.03 76.088 173.427 74.7098 173.29 73.3318C173.294 73.2694 173.294 73.2067 173.29 73.1442C174.09 72.9408 174.877 72.6902 175.648 72.3939Z" fill="#191515"/>
<path d="M181.613 119.74L196.97 131.159C195.338 136.273 193.632 139.772 192.669 139.87L178.12 141.33L175.085 134.568L181.613 119.74Z" fill="#262626"/>
<path d="M160.242 41.4658C161.168 42.2442 161.754 43.3534 161.874 44.557L162.315 48.9613L153.51 49.8421L153.053 45.4786C152.93 44.2662 153.288 43.054 154.049 42.102C154.17 42.0079 154.273 41.8916 154.351 41.7594C155.061 41.0108 156.016 40.5419 157.043 40.4381C158.203 40.3468 159.353 40.716 160.242 41.4658Z" fill="#F4AD8E"/>
<path d="M184.42 113.362L181.613 119.74L174.253 114.243L177.614 106.609L184.42 113.362Z" fill="#771515"/>
<path d="M179.336 102.694L177.614 106.609L177.06 106.054L179.336 102.694Z" fill="#262626"/>
<path d="M178.12 141.354L192.669 139.894C192.188 142.765 191.853 145.408 191.592 147.879H191.47L181.278 148.417L178.12 141.354Z" fill="#771515"/>
<path d="M152.719 39.0108C153.182 38.9674 153.644 39.1083 154.005 39.4029C154.365 39.6975 154.595 40.1222 154.644 40.5849C154.677 40.9767 154.583 41.3685 154.375 41.7023C154.268 41.8106 154.167 41.925 154.073 42.0449C153.914 42.1965 153.725 42.3132 153.518 42.3874C153.38 42.4326 153.238 42.4654 153.094 42.4853L143.074 43.4885C142.637 43.5596 142.189 43.4629 141.82 43.2177C141.451 42.9726 141.189 42.5971 141.086 42.1667C140.983 41.7362 141.046 41.2827 141.263 40.897C141.481 40.5114 141.836 40.2222 142.258 40.0874C142.395 40.0411 142.538 40.011 142.682 39.9977L152.719 39.0108Z" fill="white"/>
<path d="M177.06 106.054L177.614 106.609L174.253 114.243L161.85 105.002L153.567 86.5122L156.994 86.1614L171.299 100.345L177.06 106.054Z" fill="#771515"/>
<path d="M174.253 114.243L181.613 119.74L175.093 134.593L170.148 123.557L174.253 114.243Z" fill="#262626"/>
<path d="M191.046 155.244C191.046 155.48 191.046 155.717 191.046 155.937L184.436 155.391L181.384 148.589L181.311 148.417L191.503 147.879H191.6C191.315 150.505 191.168 152.936 191.046 155.244Z" fill="#CB1122"/>
<path d="M184.403 155.391L191.013 155.937C190.793 160.382 190.719 164.436 190.336 168.644L184.403 155.391Z" fill="#262626"/>
<path d="M210.825 214.433C211.051 214.946 211.066 215.528 210.866 216.051C210.666 216.575 210.267 216.999 209.756 217.231L204.493 217.076C204.493 217.076 202.184 217.076 201.711 216.015L200.536 213.389C203.223 212.017 205.801 210.441 208.247 208.675L210.825 214.433Z" fill="#191515"/>
<path d="M161.85 105.002L174.253 114.243L170.148 123.557L161.85 105.002Z" fill="#262626"/>
<path d="M205.187 201.897L208.222 208.675C205.776 210.441 203.198 212.017 200.511 213.389L197.19 205.959C199.99 204.887 202.67 203.526 205.187 201.897Z" fill="#771515"/>
<path d="M190.336 168.636L205.187 201.897C202.671 203.531 199.991 204.898 197.19 205.975L187.822 185.071L189.552 174.509L189.65 173.897C189.968 172.086 190.181 170.349 190.336 168.636Z" fill="#191515"/>
<path d="M184.403 155.391L190.336 168.636C190.181 170.341 189.968 172.078 189.675 173.873L187.488 177.608C186.819 171.336 183.302 165.814 178.471 164.118L174.179 154.543L184.403 155.391Z" fill="#262626"/>
<path d="M155.966 75.7624C156.232 76.3651 156.297 77.0376 156.15 77.6798C156.003 78.322 155.652 78.8996 155.15 79.3266C154.466 78.8976 153.889 78.317 153.464 77.6297C153.04 76.9424 152.779 76.1668 152.702 75.3627C152.706 75.3002 152.706 75.2376 152.702 75.1751C151.964 75.1389 151.231 75.0268 150.516 74.8407L151.919 74.2127C152.661 73.8827 153.504 73.8605 154.263 74.151C155.022 74.4415 155.634 75.021 155.966 75.7624Z" fill="#262626"/>
<path d="M181.278 148.417L184.403 155.383L174.195 154.543L171.69 148.915L180.03 148.474L181.278 148.417Z" fill="#CB1122"/>
<path d="M178.12 141.354L181.278 148.417L180.03 148.474L171.184 147.781L170.222 145.644L171.837 141.982L178.12 141.354Z" fill="#771515"/>
<path d="M175.093 134.593L178.12 141.354L171.837 141.982L175.093 134.593Z" fill="#262626"/>
<path d="M189.683 173.881L189.585 174.492C189.043 177.653 188.288 180.773 187.325 183.831L187.259 183.709L187.406 182.706C187.652 181.012 187.682 179.293 187.496 177.592L189.683 173.881Z" fill="#262626"/>
<path d="M189.577 174.492L187.847 185.055L187.317 183.831C188.28 180.773 189.035 177.653 189.577 174.492Z" fill="#191515"/>
<path d="M170.148 123.557L175.093 134.593L171.837 141.982L168.72 142.3L165.285 134.625L170.148 123.557Z" fill="#262626"/>
<path d="M180.03 148.474L171.69 148.915L171.184 147.781L180.03 148.474Z" fill="#541616"/>
<path d="M155.15 79.3266C154.933 79.5207 154.684 79.6777 154.416 79.7915L142.992 84.8891L140.324 86.0799C140.076 86.1895 139.816 86.2663 139.549 86.3083C138.886 86.4166 138.207 86.3025 137.616 85.9837C137.026 85.665 136.557 85.1595 136.285 84.5465C135.956 83.8096 135.932 82.9726 136.217 82.2179C136.503 81.4632 137.076 80.852 137.811 80.5174L139.443 79.7915L144.583 77.4915L150.295 74.9549L150.515 74.8407C151.226 75.0203 151.954 75.1268 152.686 75.1588C152.689 75.2213 152.689 75.2839 152.686 75.3464C152.762 76.1548 153.024 76.9346 153.452 77.625C153.879 78.3155 154.46 78.8978 155.15 79.3266Z" fill="#771515"/>
<path d="M161.85 105.002L170.148 123.557L165.285 134.625L147.121 94.0321L161.85 105.002Z" fill="#262626"/>
<path d="M153.567 86.5121L161.85 105.002L147.121 94.0321L144.175 87.4501L153.567 86.5121Z" fill="#771515"/>
<path d="M178.471 164.102C183.302 165.798 186.819 171.32 187.488 177.592L185.799 180.463L178.471 164.102Z" fill="#262626"/>
<path d="M150.222 74.7673L150.303 74.9549L144.591 77.4915L143.694 75.4851L145.154 71.668C146.535 73.1368 148.285 74.2073 150.222 74.7673Z" fill="#191515"/>
<path d="M139.475 50.7556L150.222 74.7673C148.297 74.202 146.558 73.1319 145.187 71.668L145.595 70.5914L143.669 69.8573C142.487 68.1747 141.54 66.339 140.854 64.4009L141.768 62.0193L139.94 61.326C139.753 60.5756 139.614 59.8497 139.516 59.1891L138.871 52.7621L138.667 50.7067L139.475 50.7556Z" fill="#262626"/>
<path d="M197.214 205.959L200.535 213.389C198.988 214.188 197.397 214.902 195.77 215.526L197.402 209.654L191.951 207.623C193.744 207.197 195.503 206.641 197.214 205.959Z" fill="#771515"/>
<path d="M185.799 180.463L187.488 177.592C187.674 179.293 187.644 181.012 187.398 182.706L187.251 183.709L185.799 180.463Z" fill="#262626"/>
<path d="M153.567 86.5122L144.175 87.4501L143.025 84.8891L151.209 81.2351L153.567 86.5122Z" fill="#191515"/>
<path d="M138.447 48.578L138.667 50.7067L138.871 52.7621L137.68 52.8844L132.784 51.0167L130.915 55.9103L129.161 56.726L127.88 53.855C127.543 53.0908 127.521 52.2246 127.819 51.4444C128.117 50.6642 128.71 50.0328 129.471 49.6872L134.53 47.428C135.213 47.1219 135.983 47.0696 136.701 47.2804C137.419 47.4913 138.038 47.9514 138.447 48.578Z" fill="#191515"/>
<path d="M187.235 183.709L187.3 183.831C187.251 183.986 187.202 184.149 187.145 184.312L187.235 183.709Z" fill="#262626"/>
<path d="M185.799 180.463L187.251 183.725L187.161 184.329L180.25 231.789C180.245 231.869 180.231 231.949 180.209 232.026C179.987 233.315 179.64 234.58 179.173 235.802C179.41 228.91 176.252 222.304 171.307 220.126L170.564 219.8C169.165 219.167 167.617 218.936 166.094 219.132C164.571 219.328 163.133 219.943 161.939 220.909L175.852 197.297C179.573 196.155 182.38 193.871 183.538 190.642C184.228 188.577 184.228 186.344 183.538 184.28L185.799 180.463Z" fill="#262626"/>
<path d="M178.471 164.102L185.815 180.463L183.563 184.28C183.498 184.092 183.441 183.905 183.375 183.717C181.58 178.774 176.545 174.036 169.781 171.573L166.076 170.219C167.334 167.431 169.62 165.236 172.457 164.093C174.294 163.415 176.307 163.375 178.169 163.979L178.471 164.102Z" fill="#262626"/>
<path d="M171.837 141.982L170.222 145.644L168.72 142.3L171.837 141.982Z" fill="#771515"/>
<path d="M145.62 70.5914L145.212 71.668C144.658 71.1057 144.151 70.5002 143.694 69.8573L145.62 70.5914Z" fill="#262626"/>
<path d="M138.871 52.7621L139.516 59.1891C139.614 59.8497 139.753 60.5756 139.94 61.326L136.856 60.1597L135.012 65.0534L133.265 65.869L129.186 56.7341L130.94 55.9185L135.836 57.7944L137.713 52.9007L138.871 52.7621Z" fill="#191515"/>
<path d="M141.768 62.0193L140.854 64.4009C140.496 63.3926 140.191 62.3662 139.94 61.326L141.768 62.0193Z" fill="#262626"/>
<path d="M145.187 71.668L143.726 75.4851L138.831 73.6255L140.707 68.7318L143.677 69.8736C144.133 70.5106 144.637 71.1105 145.187 71.668Z" fill="#E5A045"/>
<path d="M174.179 154.543L178.455 164.102L178.12 163.979C176.258 163.375 174.245 163.415 172.408 164.093C169.571 165.236 167.285 167.431 166.027 170.219L160.315 168.139L166.574 153.906L174.179 154.543Z" fill="#262626"/>
<path d="M132.768 51.0075L130.894 55.9144L135.803 57.7882L137.678 52.8812L132.768 51.0075Z" fill="#E5A045"/>
<path d="M143.669 69.8573L140.699 68.7155L138.822 73.6091L137.076 74.4248L133.241 65.869L134.987 65.0534L139.883 66.9293L140.846 64.4009C141.535 66.3394 142.485 68.1752 143.669 69.8573Z" fill="#191515"/>
<path d="M171.69 148.915L174.195 154.543L166.59 153.906L168.72 149.078L171.69 148.915Z" fill="#CB1122"/>
<path d="M136.856 60.1597L139.94 61.3342C140.191 62.3744 140.496 63.4007 140.854 64.409L139.908 66.9293L135.012 65.0534L136.856 60.1597Z" fill="#E5A045"/>
<path d="M171.184 147.781L171.69 148.915L168.72 149.078L169.348 147.642L171.184 147.781Z" fill="#541616"/>
<path d="M170.222 145.644L171.184 147.781L169.349 147.642L170.222 145.644Z" fill="#771515"/>
<path d="M168.72 142.3L170.222 145.644L169.349 147.642L159.891 146.884L161.588 143.01L168.72 142.3Z" fill="#771515"/>
<path d="M165.285 134.625L168.72 142.3L161.588 143.01L165.285 134.625Z" fill="#262626"/>
<path d="M183.359 183.717C183.424 183.905 183.481 184.092 183.547 184.28L175.876 197.33C171.094 198.63 166.023 198.39 161.384 196.645L164.461 175.545C164.727 173.706 165.278 171.921 166.093 170.251L169.797 171.605C176.529 174.036 181.564 178.774 183.359 183.717Z" fill="#262626"/>
<path d="M175.876 197.297L183.547 184.247C184.236 186.312 184.236 188.544 183.547 190.609C182.437 193.871 179.597 196.155 175.876 197.297Z" fill="#262626"/>
<path d="M143.726 75.4851L144.624 77.4833L139.483 79.7833L137.076 74.4003L138.822 73.6173L143.726 75.4851Z" fill="#191515"/>
<path d="M136.391 89.5218L139.018 88.0292L147.121 94.0729L165.285 134.625L161.588 143.01L150.899 144.086C148.941 144.29 144.216 130.89 140.169 118.117C139.859 117.147 139.557 116.168 139.255 115.197C135.991 104.725 133.38 95.4268 133.38 95.4268C133.285 94.4993 133.382 93.5622 133.662 92.6731C133.943 91.7839 134.402 90.9614 135.012 90.2558L135.942 89.7257L136.056 89.6604L136.391 89.5218ZM136.391 89.5218C136.487 89.502 136.575 89.4537 136.644 89.3831L136.391 89.5218Z" fill="#262626"/>
<path d="M159.891 146.884L169.348 147.642L168.72 149.078L158.692 149.608L159.891 146.884Z" fill="#541616"/>
<path d="M168.72 149.078L166.59 153.906L157.149 153.123L158.692 149.608L168.72 149.078Z" fill="#CB1122"/>
<path d="M144.175 87.4583L147.121 94.0321L139.018 87.9884C139.183 87.9582 139.349 87.9364 139.516 87.9232H139.744L144.175 87.4583Z" fill="#771515"/>
<path d="M166.59 153.906L160.332 168.131L151.886 165.064L157.149 153.123L166.59 153.906Z" fill="#262626"/>
<path d="M161.588 143.01L159.891 146.884L149.781 146.085L150.899 144.086L161.588 143.01Z" fill="#771515"/>
<path d="M159.891 146.884L158.692 149.608L147.488 150.195L149.781 146.085L159.891 146.884Z" fill="#541616"/>
<path d="M158.692 149.608L157.15 153.123L146.354 152.234L147.488 150.195L158.692 149.608Z" fill="#CB1122"/>
<path d="M160.307 168.139L166.019 170.219C165.204 171.888 164.654 173.674 164.387 175.512L161.311 196.612C161.208 196.585 161.108 196.553 161.009 196.514L149.585 192.363L160.307 168.139Z" fill="#262626"/>
<path d="M175.876 197.297L161.939 220.909C159.595 222.789 157.9 225.356 157.092 228.25C157.04 227.015 157.105 225.777 157.288 224.555L161.368 196.587C166.009 198.344 171.086 198.593 175.876 197.297Z" fill="#262626"/>
<path d="M136.407 89.4729L136.66 89.3342C136.591 89.4048 136.503 89.4531 136.407 89.4729Z" fill="#262626"/>
<path d="M136.391 89.5218L136.073 89.7012C136.151 89.6026 136.265 89.5383 136.391 89.5218Z" fill="#262626"/>
<path d="M135.958 89.7257L135.028 90.2558C134.418 90.9614 133.959 91.784 133.678 92.6731C133.398 93.5622 133.302 94.4993 133.396 95.4268C133.396 95.4268 136.015 104.725 139.271 115.197L115.656 128.582C113.717 129.679 111.511 130.215 109.284 130.131L109.683 129.878C110.809 129.231 111.791 128.364 112.573 127.328C113.355 126.292 113.919 125.108 114.232 123.849C114.546 122.59 114.601 121.281 114.396 119.999C114.191 118.718 113.729 117.491 113.038 116.393C112.348 115.294 111.442 114.346 110.376 113.606C109.31 112.865 108.105 112.348 106.834 112.084C105.563 111.82 104.252 111.815 102.979 112.07C101.706 112.324 100.498 112.833 99.4265 113.566L98.2922 114.268C99.2385 111.459 101.188 109.098 103.768 107.637L135.958 89.7257Z" fill="#262626"/>
<path d="M157.149 153.123L151.886 165.064L141.393 161.239L141.507 160.921L146.354 152.234L157.149 153.123Z" fill="#262626"/>
<path d="M160.332 168.131L149.683 192.363L141.238 189.288L151.886 165.064L160.332 168.131Z" fill="#262626"/>
<path d="M179.173 235.786C179.64 234.564 179.987 233.299 180.209 232.01C180.016 233.334 179.668 234.632 179.173 235.876C179.173 235.876 179.173 235.876 179.173 235.81C179.173 235.745 179.173 235.802 179.173 235.786Z" fill="#262626"/>
<path d="M171.307 220.11C176.252 222.287 179.41 228.894 179.173 235.786C179.173 235.786 179.173 235.835 179.173 235.851C176.725 242.09 178.7 240.834 172.27 243.192C170.431 243.864 168.42 243.901 166.558 243.298C161.393 241.666 157.655 235.721 157.149 229.041L161.947 220.885C163.137 219.921 164.57 219.305 166.089 219.106C167.607 218.908 169.15 219.134 170.548 219.759L171.307 220.11Z" fill="#262626"/>
<path d="M179.173 235.884C179.173 236.128 179.108 236.846 179.026 237.605C179.021 237.755 179.005 237.905 178.977 238.053L178.879 238.681C178.838 238.893 178.798 239.097 178.749 239.317C178.749 239.415 178.708 239.513 178.683 239.636C178.512 240.41 178.422 243.714 178.422 243.714C178.332 244.13 178.553 244.896 178.422 245.345C174.913 261.282 180.266 304.069 180.095 304.885L180.046 305.105C179.667 306.498 179.145 307.848 178.488 309.134C178.488 309.191 178.43 309.24 178.406 309.297C178.381 309.354 178.316 309.468 178.259 309.558C177.795 310.393 177.209 311.154 176.521 311.817C175.672 312.603 174.64 313.164 173.518 313.449L173.2 313.514L172.58 313.612L156.701 229.807L157.166 228.992C157.672 235.672 161.409 241.634 166.574 243.249C168.436 243.852 170.447 243.815 172.286 243.143C178.7 240.867 176.692 242.123 179.173 235.884Z" fill="#262626"/>
<path d="M179.026 237.605C179.108 236.846 179.149 236.128 179.173 235.884C179.149 236.455 179.075 237.026 179.026 237.605Z" fill="#262626"/>
<path d="M151.886 165.064L141.238 189.288L113.421 179.166L111.348 162.764C110.287 154.436 104.322 147.716 98.1046 147.838H97.2886C96.094 147.868 94.9196 148.152 93.8433 148.671C92.767 149.19 91.8136 149.932 91.0463 150.848C93.8533 147.267 98.9613 145.954 110.965 150.146L141.376 161.222L151.886 165.064Z" fill="#262626"/>
<path d="M178.749 239.317C178.749 239.391 178.749 239.464 178.708 239.546V239.636C178.708 239.513 178.732 239.415 178.749 239.317Z" fill="#262626"/>
<path d="M178.74 244.064L178.455 245.369C178.553 244.913 178.651 244.488 178.74 244.064Z" fill="#262626"/>
<path d="M178.455 245.369L180.707 302.756C180.544 303.514 180.364 304.232 180.168 304.934C180.299 304.126 174.946 261.306 178.455 245.369Z" fill="#262626"/>
<path d="M161.939 220.909L157.141 229.065C157.141 228.812 157.141 228.551 157.092 228.29C157.893 225.382 159.588 222.8 161.939 220.909Z" fill="#262626"/>
<path d="M141.238 189.288L149.699 192.363L141.752 210.412C141.525 210.923 141.105 211.323 140.583 211.525C140.062 211.727 139.481 211.714 138.969 211.489L135.542 207.492C135.542 207.492 134 205.779 134.465 204.711L141.238 189.288Z" fill="#191515"/>
<path d="M157.117 228.274C157.117 228.535 157.117 228.796 157.166 229.049L156.701 229.865C156.815 229.302 156.954 228.788 157.117 228.274Z" fill="#262626"/>
<path d="M156.701 229.807L172.612 313.652C170.635 313.809 168.648 313.513 166.803 312.788L166.06 312.462C164.359 311.737 162.772 310.767 161.352 309.583C156.317 305.252 157.223 299.575 158.659 293.026L156.701 229.807Z" fill="#262626"/>
<path d="M112.711 116.584C114.065 118.752 114.505 121.368 113.935 123.859C113.365 126.351 111.83 128.515 109.667 129.878L109.267 130.131C107.393 130.065 105.559 129.562 103.914 128.661C102.268 127.761 100.856 126.489 99.79 124.946C98.7238 123.403 98.0331 121.633 97.7731 119.776C97.513 117.919 97.6908 116.027 98.2923 114.251L99.4265 113.55C101.594 112.203 104.205 111.765 106.693 112.334C109.181 112.902 111.344 114.429 112.711 116.584Z" fill="#262626"/>
<path d="M67.7417 152.463C65.4154 151.832 63.4132 150.346 62.1358 148.303C61.7696 147.728 61.4711 147.112 61.2464 146.468C61.0652 145.969 60.9233 145.456 60.8221 144.935C60.4771 143.034 60.7075 141.075 61.4838 139.306C62.2601 137.538 63.547 136.041 65.1795 135.009L98.2923 114.251C97.6887 116.028 97.5098 117.922 97.7699 119.781C98.0301 121.64 98.722 123.412 99.7904 124.956C100.859 126.499 102.274 127.771 103.922 128.67C105.571 129.569 107.407 130.069 109.284 130.131L75.4446 151.345C74.3088 152.056 73.0372 152.523 71.7109 152.715C70.3847 152.908 69.0328 152.822 67.7417 152.463Z" fill="#191515"/>
<path d="M98.0883 147.838C104.306 147.716 110.271 154.436 111.332 162.764L113.421 179.166L102.299 175.088C95.5261 172.641 90.4914 167.886 88.7044 162.951C87.8253 160.733 87.7531 158.277 88.5004 156.011C89.0615 154.161 89.9245 152.416 91.0545 150.848C91.8218 149.932 92.7752 149.19 93.8515 148.671C94.9278 148.152 96.1022 147.868 97.2968 147.838H98.0883Z" fill="#262626"/>
<path d="M178.259 309.607C178.316 309.517 178.357 309.428 178.406 309.346C178.381 309.436 178.341 309.517 178.259 309.607Z" fill="#262626"/>
<path d="M113.421 179.166L119.508 226.765C120.283 232.85 120.324 238.012 116.317 240.516C114.434 241.592 112.301 242.154 110.132 242.148H109.316C107.134 242.297 104.945 241.957 102.911 241.153C97.9251 238.959 96.8724 233.486 96.0728 227.222L87.9129 163.237C87.2764 158.188 88.5575 153.678 91.0545 150.856C89.9245 152.425 89.0615 154.169 88.5004 156.019C87.7531 158.285 87.8253 160.741 88.7044 162.96C90.4914 167.894 95.5261 172.641 102.299 175.096L113.421 179.166Z" fill="#262626"/>
<path d="M173.233 313.587L173.551 313.522C173.242 313.598 172.929 313.653 172.612 313.685L173.233 313.587Z" fill="#262626"/>
<path d="M172.612 313.685L171.837 318.032C171.4 317.746 170.929 317.516 170.434 317.347L160.413 315.716L161.36 309.607C162.78 310.791 164.367 311.761 166.068 312.486L166.811 312.812C168.653 313.539 170.637 313.838 172.612 313.685Z" fill="#191515"/>
<path d="M173.061 315.194C176.684 316.148 179.638 320.088 179.94 324.622C180.283 329.834 177.043 334.01 172.751 333.912L145.889 333.284C141.605 333.186 137.811 328.839 137.468 323.627C137.415 322.912 137.437 322.193 137.533 321.482C138.063 317.323 140.968 314.256 144.649 314.338L154.71 314.574L161.425 314.737L171.511 314.974C172.035 314.985 172.555 315.059 173.061 315.194Z" fill="#262626"/>
<path d="M116.709 242.294C120.65 240.492 125.22 243.037 126.844 247.947C128.476 252.84 126.574 258.338 122.633 260.181L97.925 271.404C93.9838 273.206 89.4143 270.661 87.7742 265.751C87.5471 265.064 87.3859 264.357 87.2927 263.639C86.7215 259.357 88.6065 255.1 91.9847 253.55L101.246 249.382L104.714 247.8L116.709 242.294Z" fill="#262626"/>
<path d="M116.301 240.516L116.407 240.696L116.709 242.327L104.714 247.751L102.911 241.144C104.945 241.949 107.134 242.289 109.316 242.139H110.132C112.295 242.146 114.422 241.586 116.301 240.516Z" fill="#191515"/>
<path d="M150.001 310.308C152.023 311.13 153.69 312.637 154.71 314.566L144.648 314.329C140.968 314.248 138.063 317.315 137.533 321.474C136.658 319.437 136.392 317.191 136.766 315.006C137.492 310.928 140.454 308.318 143.816 308.4C144.578 308.415 145.332 308.561 146.044 308.832L150.001 310.308Z" fill="#191515"/>
<path d="M67.7417 152.463L63.9147 155.325L63.7842 155.399C63.5483 155.006 63.2751 154.638 62.9682 154.298L59.1657 150.22C58.6037 149.627 57.937 149.143 57.1992 148.792L57.5092 148.499L60.8466 144.91C60.9478 145.432 61.0897 145.944 61.2709 146.443C61.4956 147.087 61.7941 147.703 62.1604 148.279C63.4273 150.326 65.4205 151.82 67.7417 152.463Z" fill="#FFC2A4"/>
<path d="M101.246 249.382L91.9847 253.607C88.6065 255.157 86.7216 259.414 87.2928 263.696C85.9365 261.992 85.121 259.921 84.9509 257.75C84.5837 253.452 86.6318 249.594 89.7244 248.2C90.4017 247.89 91.1281 247.703 91.8705 247.645L95.8606 247.335C96.8522 247.275 97.8453 247.426 98.7739 247.779C99.7024 248.132 100.545 248.679 101.246 249.382Z" fill="#191515"/>
<path d="M53.005 162.756L49.9205 162.462C49.6444 162.44 49.3711 162.391 49.1046 162.315C48.6256 161.918 48.0701 161.624 47.4726 161.451C46.882 160.977 46.4189 160.363 46.1254 159.665C45.8319 158.968 45.7172 158.208 45.7916 157.454C45.7916 157.365 45.7916 157.283 45.7916 157.201L53.1355 153.564L55.6814 153.808L61.2383 154.347C62.1536 154.432 63.0214 154.794 63.7271 155.383C64.4107 156.501 64.7413 157.8 64.6758 159.109C64.6103 160.419 64.1517 161.678 63.3599 162.723C63.0483 162.936 62.7111 163.109 62.3562 163.237C61.7162 163.466 61.0339 163.552 60.357 163.49L54.6369 162.927L53.005 162.756Z" fill="#F4AD8E"/>
<path d="M62.9436 154.282C63.2505 154.621 63.5238 154.99 63.7596 155.383C63.0539 154.794 62.1862 154.433 61.2709 154.347L55.714 153.808L55.9017 152.177L53.1681 153.531L50.7854 153.295C50.1293 153.233 49.4674 153.313 48.845 153.529C48.2226 153.746 47.6543 154.095 47.1787 154.551L46.1343 153.45L49.8552 149.934C50.4802 149.341 51.2166 148.876 52.0221 148.569C52.8275 148.261 53.686 148.116 54.5478 148.142C55.4097 148.167 56.2579 148.364 57.0435 148.719C57.8291 149.074 58.5365 149.582 59.1248 150.212L62.9436 154.282Z" fill="#FFC2A4"/>
<path d="M63.4088 162.707C63.1871 163.001 62.9385 163.274 62.6662 163.522L57.0849 168.783C56.9619 168.903 56.8311 169.015 56.6932 169.118L54.4411 164.558L54.6369 162.927L60.406 163.49C61.0828 163.552 61.7651 163.466 62.4051 163.237C62.7608 163.103 63.0981 162.925 63.4088 162.707Z" fill="#FFC2A4"/>
<path d="M55.9262 152.21L55.7304 153.8L53.1845 153.564L55.9262 152.21Z" fill="#AAAAAA"/>
<path d="M50.8018 153.327L53.1845 153.564L45.8406 157.201C45.9965 156.202 46.4784 155.281 47.2115 154.583C47.687 154.127 48.2554 153.779 48.8778 153.562C49.5002 153.345 50.162 153.265 50.8182 153.327H50.8018Z" fill="#F4AD8E"/>
<path d="M56.6769 169.134L59.8756 175.659L55.8609 169.688C56.1461 169.524 56.4188 169.338 56.6769 169.134Z" fill="#AAAAAA"/>
<path d="M55.8609 169.688L59.8674 175.651L47.4725 174.346L36.2119 179.908L39.9981 166.858L41.2466 166.524C41.2548 166.669 41.2712 166.813 41.2955 166.956C41.4026 167.578 41.6324 168.173 41.9717 168.705C42.3109 169.237 42.7528 169.697 43.2716 170.057C43.7903 170.416 44.3755 170.669 44.9931 170.801C45.6107 170.932 46.2483 170.94 46.8687 170.822C47.7417 170.668 48.555 170.276 49.2188 169.688C50.2246 170.283 51.3715 170.596 52.5398 170.596C53.7082 170.596 54.8551 170.283 55.8609 169.688Z" fill="url(#paint7_linear_19_1394)"/>
<path d="M54.6369 162.927L54.4411 164.558L56.6932 169.134C56.4351 169.338 56.1624 169.524 55.8772 169.688L52.3685 164.469L52.9968 162.756L54.6369 162.927Z" fill="#AAAAAA"/>
<path d="M52.3766 164.469L55.8853 169.688C54.8766 170.287 53.7252 170.603 52.552 170.603C51.3789 170.603 50.2274 170.287 49.2187 169.688C49.8523 169.152 50.3357 168.46 50.6218 167.681C50.9079 166.902 50.9867 166.062 50.8507 165.243C50.6583 164.104 50.0509 163.075 49.1453 162.356C49.4118 162.432 49.6851 162.481 49.9613 162.503L53.0457 162.797L52.3766 164.469Z" fill="url(#paint8_linear_19_1394)"/>
<path d="M46.1507 153.482L47.1951 154.583C46.4589 155.285 45.9767 156.212 45.8243 157.218L44.6574 157.797L42.6909 157.585C43.046 156.701 43.5889 155.905 44.282 155.252L46.1507 153.482Z" fill="#FFC2A4"/>
<path d="M45.8243 157.218C45.8243 157.299 45.8243 157.381 45.8243 157.471C45.7498 158.224 45.8645 158.984 46.158 159.682C46.4516 160.38 46.9146 160.993 47.5052 161.467C46.7899 161.257 46.0352 161.218 45.302 161.353C44.3644 161.525 43.4954 161.961 42.7969 162.609C42.1166 161.008 42.0902 159.205 42.7235 157.585L44.69 157.797L45.8243 157.218Z" fill="url(#paint9_linear_19_1394)"/>
<path d="M32.2462 156.476L42.6908 157.568C42.0576 159.188 42.084 160.992 42.7643 162.593C42.2366 163.087 41.8264 163.692 41.5637 164.366C41.3011 165.039 41.1927 165.762 41.2466 166.483L39.9981 166.818L32.2462 156.476Z" fill="url(#paint10_linear_19_1394)"/>
<path d="M32.2462 156.476L39.9981 166.809L36.2119 179.908L37.697 167.56L32.2462 156.476Z" fill="#AAAAAA"/>
<path d="M161.091 196.506L141.507 160.929L121.409 153.963L141.238 189.28L161.091 196.506Z" fill="url(#paint11_linear_19_1394)"/>
<path d="M139.255 115.205L133.38 95.4187C133.253 94.491 133.334 93.547 133.616 92.6543C133.899 91.7616 134.375 90.9425 135.012 90.2558L126.036 95.2311L124.086 123.778L139.255 115.205Z" fill="url(#paint12_linear_19_1394)"/>
<path d="M201.564 105.801L203.163 92.2133L232.653 101.544L201.564 105.801Z" fill="url(#paint13_linear_19_1394)"/>
<path d="M171.829 318.032L172.604 313.685L173.233 313.587C178.463 312.772 180.119 304.942 180.119 304.942C178.61 240.565 178.088 240.663 178.488 238.918C178.724 237.768 179.206 235.802 179.206 235.802C179.69 234.496 180.051 233.147 180.283 231.773L189.707 173.864L156.701 229.807L172.604 313.652" fill="url(#paint14_linear_19_1394)"/>
<path d="M138.659 50.7067L173.273 73.1116C177.929 71.8775 182.148 69.3693 185.456 65.869C191.062 60.021 190.099 54.0752 190.099 54.0752L138.659 50.7067Z" fill="url(#paint15_linear_19_1394)"/>
<path d="M172.547 6.94903C172.547 6.94903 175.566 29.0766 119.026 34.5739L207.79 29.5742C208.213 29.5744 208.619 29.4104 208.924 29.1167C209.228 28.8231 209.407 28.4227 209.422 28C209.658 26.3688 207.79 25.8713 207.79 25.8713L172.547 6.94903Z" fill="url(#paint16_linear_19_1394)"/>
<path d="M187.863 31.8905L138.667 50.7067L137.027 33.5625L187.741 30.6997L187.863 31.8905Z" fill="url(#paint17_linear_19_1394)"/>
<path d="M151.087 86.7569L197.484 129.552L196.97 131.175L139.018 87.9884L151.087 86.7569Z" fill="url(#paint18_linear_19_1394)"/>
<path d="M185.252 83.3231L173.828 102.849L177.06 106.054L192.963 82.5483L185.252 83.3231Z" fill="url(#paint19_linear_19_1394)"/>
<path d="M150.899 144.086L191.478 147.879L192.678 139.894L150.899 144.086Z" fill="url(#paint20_linear_19_1394)"/>
<path d="M191.095 155.929L147.137 150.962L147.562 150.187L191.551 147.863L191.095 155.929Z" fill="url(#paint21_linear_19_1394)"/>
<path d="M202.42 159.061L194.35 148.54L191.552 147.871L191.046 155.211C194.991 155.986 198.816 157.281 202.42 159.061Z" fill="url(#paint22_linear_19_1394)"/>
<path d="M162.44 102.163L159.453 106.163C159.113 106.618 159.205 107.261 159.659 107.599C160.112 107.937 160.755 107.843 161.094 107.388L164.081 103.388C164.421 102.933 164.329 102.29 163.876 101.952C163.423 101.614 162.78 101.709 162.44 102.163Z" fill="#E5A045"/>
<path d="M166.56 105.906L163.573 109.906C163.233 110.361 163.325 111.004 163.779 111.342C164.232 111.68 164.875 111.585 165.214 111.131L168.201 107.131C168.541 106.676 168.449 106.033 167.996 105.695C167.543 105.357 166.9 105.451 166.56 105.906Z" fill="#E5A045"/>
<path d="M157.098 98.4792L154.111 102.479C153.772 102.934 153.865 103.578 154.32 103.918C154.775 104.257 155.419 104.164 155.759 103.709L158.746 99.7087C159.086 99.2539 158.992 98.6099 158.537 98.2704C158.082 97.9309 157.438 98.0244 157.098 98.4792Z" fill="#E5A045"/>
<path d="M210.535 42.8762L205.638 44.7825L207.542 49.6693L212.439 47.763L210.535 42.8762Z" fill="url(#paint23_linear_19_1394)"/>
<path d="M206.509 52.0525L208.41 56.938L203.522 58.8384L201.613 53.9447L206.509 52.0525Z" fill="url(#paint24_linear_19_1394)"/>
<path d="M202.731 60.6409L204.632 65.5264L199.736 67.4349L197.835 62.5413L202.731 60.6409Z" fill="url(#paint25_linear_19_1394)"/>
<path d="M145.187 71.668L143.726 75.4851L138.831 73.6255L140.707 68.7318L143.677 69.8736C144.133 70.5106 144.637 71.1105 145.187 71.668Z" fill="url(#paint26_linear_19_1394)"/>
<path d="M132.768 51.0075L130.894 55.9144L135.803 57.7882L137.678 52.8812L132.768 51.0075Z" fill="url(#paint27_linear_19_1394)"/>
<path d="M136.856 60.1597L139.94 61.3342C140.191 62.3744 140.496 63.4007 140.854 64.409L139.908 66.9293L135.012 65.0534L136.856 60.1597Z" fill="url(#paint28_linear_19_1394)"/>
<path d="M162.44 102.163L159.453 106.163C159.113 106.618 159.205 107.261 159.659 107.599C160.112 107.937 160.755 107.843 161.094 107.388L164.081 103.388C164.421 102.933 164.329 102.29 163.876 101.952C163.423 101.614 162.78 101.709 162.44 102.163Z" fill="url(#paint29_linear_19_1394)"/>
<path d="M166.56 105.906L163.573 109.906C163.233 110.361 163.325 111.004 163.779 111.342C164.232 111.68 164.875 111.585 165.214 111.131L168.201 107.131C168.541 106.676 168.449 106.033 167.996 105.695C167.543 105.357 166.9 105.451 166.56 105.906Z" fill="url(#paint30_linear_19_1394)"/>
<path d="M157.098 98.4792L154.111 102.479C153.772 102.934 153.865 103.578 154.32 103.918C154.775 104.257 155.419 104.164 155.759 103.709L158.746 99.7087C159.086 99.2539 158.992 98.6099 158.537 98.2704C158.082 97.9309 157.438 98.0244 157.098 98.4792Z" fill="url(#paint31_linear_19_1394)"/>
<path d="M206.182 72.6549C206.734 72.8993 207.202 73.3016 207.526 73.811C207.849 74.3204 208.015 74.9142 208.002 75.5177C207.989 76.1211 207.798 76.7072 207.452 77.2021C207.106 77.697 206.622 78.0786 206.06 78.2989C205.302 78.5858 204.461 78.5653 203.718 78.2418L200.495 76.8227L192.294 73.2095L189.609 72.0269C188.871 71.6984 188.293 71.0906 188.002 70.3368C187.712 69.583 187.732 68.7447 188.059 68.0059C188.215 67.635 188.445 67.2994 188.733 67.0191C189.022 66.7389 189.365 66.5197 189.74 66.3746C190.494 66.0847 191.332 66.1023 192.074 66.4236L193.706 67.1413L198.855 69.4087L204.566 71.9127L206.182 72.6549Z" fill="url(#paint32_linear_19_1394)"/>
<path d="M155.15 79.3266C154.933 79.5207 154.684 79.6777 154.416 79.7915L142.992 84.8891L140.324 86.0799C140.076 86.1895 139.816 86.2663 139.549 86.3083C138.886 86.4166 138.207 86.3025 137.616 85.9837C137.026 85.665 136.557 85.1595 136.285 84.5465C135.956 83.8096 135.932 82.9726 136.217 82.2179C136.503 81.4632 137.076 80.852 137.811 80.5174L139.443 79.7915L144.583 77.4915L150.295 74.9549L150.515 74.8407C151.226 75.0203 151.954 75.1268 152.686 75.1588C152.689 75.2213 152.689 75.2839 152.686 75.3464C152.762 76.1548 153.024 76.9346 153.452 77.625C153.879 78.3155 154.46 78.8978 155.15 79.3266Z" fill="url(#paint33_linear_19_1394)"/>
</g>
<defs>
<linearGradient id="paint0_linear_19_1394" x1="180.234" y1="350.583" x2="180.234" y2="-17.6825" gradientUnits="userSpaceOnUse">
<stop stop-color="#991A2A"/>
<stop offset="1" stop-color="#EA2D3B"/>
</linearGradient>
<linearGradient id="paint1_linear_19_1394" x1="25.9876" y1="350.583" x2="25.9876" y2="-17.6825" gradientUnits="userSpaceOnUse">
<stop stop-color="#991A2A"/>
<stop offset="1" stop-color="#EA2D3B"/>
</linearGradient>
<linearGradient id="paint2_linear_19_1394" x1="22.3401" y1="350.584" x2="22.3401" y2="-17.6824" gradientUnits="userSpaceOnUse">
<stop stop-color="#991A2A"/>
<stop offset="1" stop-color="#EA2D3B"/>
</linearGradient>
<linearGradient id="paint3_linear_19_1394" x1="270.964" y1="18.854" x2="281.311" y2="15.0987" gradientUnits="userSpaceOnUse">
<stop stop-color="#B3B3B3"/>
<stop offset="1" stop-color="#F2F2F2"/>
</linearGradient>
<linearGradient id="paint4_linear_19_1394" x1="249.948" y1="14.2329" x2="271.776" y2="6.31028" gradientUnits="userSpaceOnUse">
<stop stop-color="#B3B3B3"/>
<stop offset="1" stop-color="#F2F2F2"/>
</linearGradient>
<linearGradient id="paint5_linear_19_1394" x1="267.501" y1="22.7042" x2="272.525" y2="20.8808" gradientUnits="userSpaceOnUse">
<stop stop-color="#B3B3B3"/>
<stop offset="1" stop-color="#F2F2F2"/>
</linearGradient>
<linearGradient id="paint6_linear_19_1394" x1="256.896" y1="20.1988" x2="263.814" y2="17.6878" gradientUnits="userSpaceOnUse">
<stop stop-color="#B3B3B3"/>
<stop offset="1" stop-color="#F2F2F2"/>
</linearGradient>
<linearGradient id="paint7_linear_19_1394" x1="35.0209" y1="176.659" x2="57.3096" y2="168.569" gradientUnits="userSpaceOnUse">
<stop stop-color="#B3B3B3"/>
<stop offset="1" stop-color="#F2F2F2"/>
</linearGradient>
<linearGradient id="paint8_linear_19_1394" x1="48.4492" y1="167.547" x2="54.3243" y2="165.415" gradientUnits="userSpaceOnUse">
<stop stop-color="#B3B3B3"/>
<stop offset="1" stop-color="#F2F2F2"/>
</linearGradient>
<linearGradient id="paint9_linear_19_1394" x1="42.0309" y1="160.625" x2="46.5638" y2="158.98" gradientUnits="userSpaceOnUse">
<stop stop-color="#B3B3B3"/>
<stop offset="1" stop-color="#F2F2F2"/>
</linearGradient>
<linearGradient id="paint10_linear_19_1394" x1="34.3687" y1="162.354" x2="43.2504" y2="159.13" gradientUnits="userSpaceOnUse">
<stop stop-color="#B3B3B3"/>
<stop offset="1" stop-color="#F2F2F2"/>
</linearGradient>
<linearGradient id="paint11_linear_19_1394" x1="122.798" y1="181.472" x2="167.14" y2="166.533" gradientUnits="userSpaceOnUse">
<stop stop-color="#333333" stop-opacity="0"/>
<stop offset="1"/>
</linearGradient>
<linearGradient id="paint12_linear_19_1394" x1="113.331" y1="112.507" x2="152.29" y2="99.383" gradientUnits="userSpaceOnUse">
<stop stop-color="#333333" stop-opacity="0"/>
<stop offset="1"/>
</linearGradient>
<linearGradient id="paint13_linear_19_1394" x1="191.468" y1="105.806" x2="248.364" y2="86.6406" gradientUnits="userSpaceOnUse">
<stop/>
<stop offset="1" stop-color="#333333" stop-opacity="0"/>
</linearGradient>
<linearGradient id="paint14_linear_19_1394" x1="149.736" y1="257.223" x2="211.739" y2="234.719" gradientUnits="userSpaceOnUse">
<stop stop-color="#333333" stop-opacity="0"/>
<stop offset="1" stop-opacity="0.5"/>
</linearGradient>
<linearGradient id="paint15_linear_19_1394" x1="148.249" y1="72.9923" x2="183.893" y2="35.1003" gradientUnits="userSpaceOnUse">
<stop stop-color="#333333" stop-opacity="0"/>
<stop offset="1" stop-opacity="0.5"/>
</linearGradient>
<linearGradient id="paint16_linear_19_1394" x1="227.058" y1="37.3608" x2="150.5" y2="21.7279" gradientUnits="userSpaceOnUse">
<stop stop-color="#F15A24"/>
<stop offset="0.17" stop-color="#F26423" stop-opacity="0.83"/>
<stop offset="1" stop-color="#F7931E" stop-opacity="0"/>
</linearGradient>
<linearGradient id="paint17_linear_19_1394" x1="162.194" y1="24.9824" x2="162.832" y2="44.2724" gradientUnits="userSpaceOnUse">
<stop stop-color="#603813"/>
<stop offset="1" stop-color="#F7931E" stop-opacity="0"/>
</linearGradient>
<linearGradient id="paint18_linear_19_1394" x1="149.318" y1="116.38" x2="187.644" y2="102.469" gradientUnits="userSpaceOnUse">
<stop stop-color="#760E14"/>
<stop offset="1" stop-color="#FF0023" stop-opacity="0"/>
</linearGradient>
<linearGradient id="paint19_linear_19_1394" x1="172.066" y1="98.0053" x2="195.482" y2="89.5064" gradientUnits="userSpaceOnUse">
<stop stop-color="#760E14"/>
<stop offset="1" stop-color="#FF0023" stop-opacity="0"/>
</linearGradient>
<linearGradient id="paint20_linear_19_1394" x1="153.868" y1="152.281" x2="192.125" y2="138.395" gradientUnits="userSpaceOnUse">
<stop stop-color="#760E14"/>
<stop offset="1" stop-color="#FF0023" stop-opacity="0"/>
</linearGradient>
<linearGradient id="paint21_linear_19_1394" x1="150.393" y1="159.952" x2="190.63" y2="145.348" gradientUnits="userSpaceOnUse">
<stop stop-color="#760E14"/>
<stop offset="1" stop-color="#FF0023" stop-opacity="0"/>
</linearGradient>
<linearGradient id="paint22_linear_19_1394" x1="191.163" y1="155.594" x2="199.984" y2="152.393" gradientUnits="userSpaceOnUse">
<stop stop-color="#000E14"/>
<stop offset="1" stop-color="#C10023" stop-opacity="0"/>
</linearGradient>
<linearGradient id="paint23_linear_19_1394" x1="206.519" y1="47.2178" x2="211.573" y2="45.3833" gradientUnits="userSpaceOnUse">
<stop stop-color="#F15A24"/>
<stop offset="0.08" stop-color="#F26423" stop-opacity="0.83"/>
<stop offset="0.5" stop-color="#F7931E" stop-opacity="0"/>
</linearGradient>
<linearGradient id="paint24_linear_19_1394" x1="202.497" y1="56.3866" x2="207.544" y2="54.5548" gradientUnits="userSpaceOnUse">
<stop stop-color="#F15A24"/>
<stop offset="0.08" stop-color="#F26423" stop-opacity="0.83"/>
<stop offset="0.5" stop-color="#F7931E" stop-opacity="0"/>
</linearGradient>
<linearGradient id="paint25_linear_19_1394" x1="198.714" y1="64.977" x2="203.761" y2="63.1453" gradientUnits="userSpaceOnUse">
<stop stop-color="#F15A24"/>
<stop offset="0.08" stop-color="#F26423" stop-opacity="0.83"/>
<stop offset="0.5" stop-color="#F7931E" stop-opacity="0"/>
</linearGradient>
<linearGradient id="paint26_linear_19_1394" x1="138.729" y1="73.3816" x2="144.98" y2="71.1128" gradientUnits="userSpaceOnUse">
<stop stop-color="#F15A24"/>
<stop offset="0.08" stop-color="#F26423" stop-opacity="0.83"/>
<stop offset="0.5" stop-color="#F7931E" stop-opacity="0"/>
</linearGradient>
<linearGradient id="paint27_linear_19_1394" x1="130.809" y1="55.6737" x2="137.774" y2="53.1461" gradientUnits="userSpaceOnUse">
<stop stop-color="#F15A24"/>
<stop offset="0.08" stop-color="#F26423" stop-opacity="0.83"/>
<stop offset="0.5" stop-color="#F7931E" stop-opacity="0"/>
</linearGradient>
<linearGradient id="paint28_linear_19_1394" x1="134.893" y1="64.821" x2="140.469" y2="62.7972" gradientUnits="userSpaceOnUse">
<stop stop-color="#F15A24"/>
<stop offset="0.08" stop-color="#F26423" stop-opacity="0.83"/>
<stop offset="0.5" stop-color="#F7931E" stop-opacity="0"/>
</linearGradient>
<linearGradient id="paint29_linear_19_1394" x1="158.838" y1="105.874" x2="164.69" y2="103.75" gradientUnits="userSpaceOnUse">
<stop stop-color="#F15A24"/>
<stop offset="0.08" stop-color="#F26423" stop-opacity="0.83"/>
<stop offset="0.5" stop-color="#F7931E" stop-opacity="0"/>
</linearGradient>
<linearGradient id="paint30_linear_19_1394" x1="162.968" y1="109.616" x2="168.82" y2="107.492" gradientUnits="userSpaceOnUse">
<stop stop-color="#F15A24"/>
<stop offset="0.08" stop-color="#F26423" stop-opacity="0.83"/>
<stop offset="0.5" stop-color="#F7931E" stop-opacity="0"/>
</linearGradient>
<linearGradient id="paint31_linear_19_1394" x1="154.994" y1="101.491" x2="160.866" y2="99.3478" gradientUnits="userSpaceOnUse">
<stop stop-color="#F15A24"/>
<stop offset="0.08" stop-color="#F26423" stop-opacity="0.83"/>
<stop offset="0.5" stop-color="#F7931E" stop-opacity="0"/>
</linearGradient>
<linearGradient id="paint32_linear_19_1394" x1="189.794" y1="75.3147" x2="206" y2="69.4325" gradientUnits="userSpaceOnUse">
<stop stop-color="#000E14"/>
<stop offset="0.45" stop-color="#C10023" stop-opacity="0"/>
</linearGradient>
<linearGradient id="paint33_linear_19_1394" x1="136.068" y1="83.8905" x2="154.384" y2="77.2428" gradientUnits="userSpaceOnUse">
<stop stop-color="#000E14"/>
<stop offset="0.45" stop-color="#C10023" stop-opacity="0"/>
</linearGradient>
<clipPath id="clip0_19_1394">
<rect width="330" height="334" fill="white"/>
</clipPath>
</defs>
</svg>
